<svg width="316" height="344" viewBox="0 0 316 344" fill="none" xmlns="http://www.w3.org/2000/svg">
<path d="M88.616 183.38H79.288C97.732 183.38 112.784 168.54 112.784 150.096C112.784 131.652 97.732 116.6 79.288 116.6H4.24V118.084C8.268 118.084 11.66 121.476 11.66 125.504V256.096C11.66 260.336 8.268 263.516 4.24 263.516V265H88.616C111.088 265 129.32 246.768 129.32 224.296C129.32 201.824 111.088 183.38 88.616 183.38ZM41.34 118.084H51.94C69.748 118.084 84.164 132.712 84.164 150.52C84.164 168.328 69.112 181.048 61.056 182.744C47.912 185.288 41.34 186.56 41.34 186.56V118.084ZM61.268 263.516H48.548C44.52 263.516 41.128 260.336 41.128 256.096V205.852C41.128 195.464 48.548 186.56 58.724 184.652C60.844 184.228 62.752 184.228 64.66 184.44C85.012 186.136 100.912 203.096 100.912 223.872C100.912 245.92 83.104 263.516 61.268 263.516ZM289.653 116.812H266.333V118.296C275.661 118.296 281.385 128.26 276.721 136.528L245.133 191.224L206.549 124.232C205.065 121.476 206.973 118.084 210.153 118.084V116.6H165.633V118.084C170.297 118.084 174.961 120.84 177.293 125.08L210.153 182.108C214.181 188.892 216.301 196.524 216.301 204.58V256.096C216.301 260.336 212.909 263.516 208.881 263.516V265H253.401V263.516C249.161 263.516 245.981 260.336 245.981 256.096V204.58C245.981 196.524 248.101 188.892 251.917 182.108L277.781 137.164C284.565 125.504 297.073 118.084 310.853 118.084V116.6H289.653V116.812Z" fill="black"/>
<path d="M160.759 169C158.973 169 155.259 169.5 155.259 169.5L157.759 164.5C158.622 162.211 159.378 160.5 160.759 160.5C162.141 160.5 162.732 162.211 163.759 164.5C164.861 166.955 166.259 169.5 166.259 169.5C166.259 169.5 162.545 169 160.759 169Z" fill="black"/>
<path d="M145.946 175.312C144.652 176.543 142.305 179.464 142.305 179.464L140.672 174.118C139.72 171.865 138.678 169.804 139.68 168.852C140.681 167.9 142.699 169.033 145.02 169.984C147.511 171.004 150.277 171.885 150.277 171.885C150.277 171.885 147.241 174.082 145.946 175.312Z" fill="black"/>
<path d="M140.053 189.711C140.07 191.497 140.606 195.205 140.606 195.205C140.606 195.205 137.534 193.98 135.524 193C133.227 192.159 131.068 191.271 131.054 189.889C131.041 188.508 133.245 187.804 135.524 186.754C137.968 185.629 140.499 184.206 140.499 184.206C140.499 184.206 140.036 187.924 140.053 189.711Z" fill="black"/>
<path d="M145.966 205.169C147.253 206.408 150.275 208.623 150.275 208.623L145.007 210.491C142.798 211.542 140.785 212.674 139.79 211.716C138.795 210.758 139.412 208.361 140.259 206C141.168 203.467 142.351 200.994 142.351 200.994C142.351 200.994 144.679 203.93 145.966 205.169Z" fill="black"/>
<path d="M160.442 210.662C162.228 210.68 165.947 210.218 165.947 210.218C165.947 210.218 164.78 213.51 163.759 215.5C162.873 217.78 161.822 219.677 160.441 219.663C159.059 219.648 158.4 217.43 157.396 215.131C156.319 212.665 154.947 210.106 154.947 210.106C154.947 210.106 158.656 210.644 160.442 210.662Z" fill="black"/>
<path d="M175.279 204.824C176.533 203.551 178.782 200.554 178.782 200.554L180.591 205.844C181.616 208.064 182.726 210.089 181.756 211.074C180.787 212.058 178.733 210.993 176.381 210.119C173.858 209.181 171.064 208.392 171.064 208.392C171.064 208.392 174.026 206.097 175.279 204.824Z" fill="black"/>
<path d="M181.402 189.862C181.455 187.963 181.065 184 181.065 184L185.989 186.798C188.252 187.779 190.442 188.547 190.401 190.016C190.36 191.485 188.13 192.149 185.812 193.178C183.325 194.281 180.74 195.697 180.74 195.697C180.74 195.697 181.349 191.762 181.402 189.862Z" fill="black"/>
<path d="M175.228 175.488C173.892 174.137 170.759 171.678 170.759 171.678L176.185 170.055C178.458 169.099 180.726 167.955 181.759 169C182.792 170.045 181.532 172.208 180.672 174.594C179.749 177.154 178.985 180.001 178.985 180.001C178.985 180.001 176.563 176.839 175.228 175.488Z" fill="black"/>
<circle cx="160.759" cy="190" r="18" fill="black"/>
<path d="M257.623 56.1303C258.96 57.2026 259.926 59.3734 260.166 63.0049C260.402 66.5835 259.909 71.2585 258.693 76.8846C256.263 88.1223 251.022 102.828 243.472 119.484C228.38 152.782 204.177 193.629 175.237 229.705C146.233 265.861 121.668 292.279 102.536 308.146C92.9596 316.089 84.8377 321.309 78.2718 323.819C71.6829 326.338 67.0561 325.997 63.9797 323.529C62.6021 322.424 61.5967 320.313 61.2482 316.904C60.9029 313.529 61.2324 309.141 62.2483 303.859C64.2779 293.305 68.9815 279.506 75.9942 263.75C90.012 232.256 113.141 193.203 142.084 157.124C171.09 120.965 196.736 92.7416 216.957 75.0706C227.08 66.2248 235.757 60.1005 242.753 56.9225C249.838 53.7047 254.642 53.739 257.623 56.1303Z" stroke="black" stroke-width="3.24395"/>
</svg>
